# xmcd
#
# Track frame offsets:
#	150
#	21225
#	40012
#	57410
#	77026
#	95135
#	119115
#	146869
#	166745
#	189926
#	213142
#	231365
#	254146
#	272588
#	298105
#	322042
#	337151
#
# Disc length: 4826 seconds
#
# Revision: 2
# Processed by: cddbd v1.5.2PL0 Copyright (c) Steve Scherf et al.
# Submitted via: audiograbber 1.83.01
#
DISCID=0d12d811
DTITLE=Herbert Grönemeyer - Tumult - Clubkonzert Berlin [CD and Blu-ray Edition]
DYEAR=2019
DGENRE=Deutsch Pop
TTITLE0=Sekundenglück [Live 2018, Clubkonzert Berlin]
TTITLE1=Der Held [Live 2018, Clubkonzert Berlin]
TTITLE2=Bist du da [Live 2018, Clubkonzert Berlin]
TTITLE3=Doppelherz - Iki gönlüm [Live 2018, Clubkonzert Berlin]
TTITLE4=Mein Lebenssrahlen [Live 2018, Clubkonzert Berlin]
TTITLE5=Mensch [Live 2018, Clubkonzert Berlin]
TTITLE6=Fall der Fälle [Live 2018, Clubkonzert Berlin]
TTITLE7=Warum [Live 2018, Clubkonzert Berlin]
TTITLE8=Ein Stück vom Himmel [Live 2018, Clubkonzert Berlin]
TTITLE9=Alkohol [Live 2018, Clubkonzert Berlin]
TTITLE10=Lebe mit mir los [Live 2018, Clubkonzert Berlin]
TTITLE11=Verwandt [Live 2018, Clubkonzert Berlin]
TTITLE12=Und immer [Live 2018, Clubkonzert Berlin]
TTITLE13=Zum Meer [Live 2018, Clubkonzert Berlin]
TTITLE14=Bleibt alles anders [Live 2018, Clubkonzert Berlin]
TTITLE15=Immerfort [Live 2018, Clubkonzert Berlin]
TTITLE16=Morgen [Live 2018, Clubkonzert Berlin]
EXTD=
EXTT0=
EXTT1=
EXTT2=
EXTT3=
EXTT4=
EXTT5=
EXTT6=
EXTT7=
EXTT8=
EXTT9=
EXTT10=
EXTT11=
EXTT12=
EXTT13=
EXTT14=
EXTT15=
EXTT16=
PLAYORDER=
